# xmcd CD database file
#
# Track frame offsets:
#	150
#	15244
#	31596
#	49504
#	66669
#	80936
#	97621
#	111788
#	134878
#	155878
#	172716
#	189023
#
# Disc length: 2758 seconds
#
# Revision: 0
# Processed by: cddbd v1.5.1PL0 Copyright (c) Steve Scherf et al.
# Submitted via: CDex 1.51
#
DISCID=900ac40c
DTITLE=Joe Taino - Best of ...
DYEAR=2001
DGENRE=Blues
TTITLE0=You Fight Too Much
TTITLE1=I Just Wanna Make Love to You
TTITLE2=Take Me Now
TTITLE3=Cry so Much for You
TTITLE4=Annalee
TTITLE5=Half a Man
TTITLE6=Marilu
TTITLE7=Oh Baby
TTITLE8=HooDoo Man
TTITLE9=Born Under a Bad Sign
TTITLE10=Don't Loose your Cool
TTITLE11=Odd Blues
EXTD=YEAR: 2001
EXTT0=
EXTT1=
EXTT2=
EXTT3=
EXTT4=
EXTT5=
EXTT6=
EXTT7=
EXTT8=
EXTT9=
EXTT10=
EXTT11=
PLAYORDER=
